<svg xmlns="http://www.w3.org/2000/svg" height="79.318" width="62.645" viewBox="0 0 62.645 79.318"><path fill="#fff" d="M48.442 72.285l-4.618-3.717a.375.375 0 01.035-.61A7.658 7.658 0 0047.289 63c.628-3.047-.667-6.147-3.141-7.885-1.35 1.187-2.886 1.857-3.847 2.034a2.55 2.55 0 01-.52.05 2.55 2.55 0 01-1.54-.517 2.555 2.555 0 01-1.002-1.695 2.566 2.566 0 012.082-2.892l.067-.012c.144-.037.55-.22.987-.53a14.47 14.47 0 00-.423-.18 85.067 85.067 0 01-5.089-2.252c-.566 1.278-1.271 2.464-1.938 2.985a2.652 2.652 0 01-2.187.538 2.322 2.322 0 01-1.543-1.058c-.811-1.32-.001-2.74.713-3.993.139-.243.274-.482.398-.716-1.868-.89-4.036-1.973-5.621-3.496l-.008.01a8.699 8.699 0 01-.851-.934l-.03.065-1.7 3.813a.11.11 0 01-.008.016l-.055.111-.004-.004c-3.983 6.91-3.482 14.294 1.491 21.949 3.752 5.774 8.778 9.537 8.829 9.575a.386.386 0 01.062.057 1.493 1.493 0 002.114.169c.304-.26.49-.623.521-1.021.032-.4-.093-.787-.353-1.092l-3.844-4.512a.375.375 0 01.146-.592 7.663 7.663 0 004.293-4.233c1.383-3.356.214-7.274-2.78-9.317a.375.375 0 01.423-.619c3.285 2.241 4.568 6.54 3.05 10.222a8.47 8.47 0 01-1.645 2.56c4.134 1.794 12.031 4.922 12.129 4.96a.378.378 0 01.096.056 1.492 1.492 0 002.109-.228 1.501 1.501 0 00-.228-2.107"/><path d="M24.242 32.71c-.004-.012-.01-.024-.013-.036l.39.08c-.09.13-.182.258-.272.394a4.758 4.758 0 00-.105-.437m-5.783-3.83c-.314.035-.63.094-.944.187a5.397 5.397 0 00-1.371.63l-.066.04a5.425 5.425 0 00-.151-.688 5.409 5.409 0 00-6.69-3.652 5.406 5.406 0 00-4.991-6.002c2.543-1.406 6.838-3.652 12.395-6.074a168.3 168.3 0 011.833-.786C25.922 9.4 35.34 6.096 45.692 4.022c.803-.16 1.61-.314 2.424-.46a108.49 108.49 0 018.83-1.213 47.35 47.35 0 01-.567.739c-.45.574-.953 1.191-1.497 1.844-4.008 4.797-10.327 11.461-15.166 16.45l-.18-.095c-.71-.376-1.434-.762-2.17-1.157a786.398 786.398 0 01-14.187-7.818 1.082 1.082 0 00-1.062 1.882l.07.04c3.833 2.163 10.054 5.635 15.956 8.765l-.704.72c-.55-.406-1.1-.639-1.667-.707-1.362-.163-2.458.675-3.164 1.321-1.61 1.475-3.255 2.981-4.797 4.603l-.702-.76a.178.178 0 00-.262.242l.72.78c-.462.494-.913 1-1.351 1.517l-.561-.275a.178.178 0 10-.157.32l.478.234a31.484 31.484 0 00-1.13 1.445l-.756-.159a5.405 5.405 0 00-5.63-3.399m32.314 14.83a5.384 5.384 0 00-1.436.67 5.426 5.426 0 00-.151-.688 5.38 5.38 0 00-1.581-2.484c.168-.552.336-1.099.5-1.649l2.543 1.499a.177.177 0 00.244-.063.178.178 0 00-.063-.244l-2.618-1.543.207-.69 3.19 1.274a.178.178 0 00.132-.33l-3.22-1.286.06-.203.125-.413 3.152-.154a.178.178 0 00.17-.186c-.006-.098-.09-.182-.187-.17l-3.027.149.379-1.266 1.083-3.606a.375.375 0 00-.449-.472l-4.36 1.072-3.264-1.296a213.8 213.8 0 01-.646-1.91l-.097-.287c-.065-.197-.132-.391-.197-.587-.481-1.459-1.34-2.64-2.253-3.633l1.136-1.162c3.791 1.983 7.313 3.738 9.811 4.804.914.39 1.69.687 2.293.87.445.135.796.208 1.035.208h.017a1.083 1.083 0 00.738-1.855 1.073 1.073 0 00-.752-.306h-.025c-.961 0-5.525-2.187-11.546-5.337a493.017 493.017 0 008.692-9.18c.558-.607 1.11-1.211 1.649-1.808 2.05-2.268 3.935-4.431 5.418-6.271-.461 3.51-1.096 8.75-1.6 14.429-.069.765-.134 1.538-.197 2.316-.396 4.93-.666 10.05-.62 14.552.008.822.027 1.623.058 2.398.085 2.161.261 4.123.553 5.783a5.4 5.4 0 00-4.896-.945M25.421 32.922l.713.149c-.86 1.147-1.845 2.652-2.17 4.367-.387 2.047.32 3.588 1.566 4.834l.009-.01c1.36 1.37 3.359 2.379 5.266 3.29-.03.208-.093.424-.18.645-1.895-.903-4.11-2.011-5.625-3.568l-.046-.048a7.251 7.251 0 01-.168-.18l-.098-.112a7.742 7.742 0 01-.258-.314l-.078-.102a8.095 8.095 0 01-.176-.248l-.027-.039a5.487 5.487 0 01-.92-2.507l-.003-.034a6.114 6.114 0 01.089-1.73c.325-1.721 1.25-3.22 2.106-4.393m15.997 17.554c-.118.195-.26.374-.415.537a19.06 19.06 0 00-.77-.336 84.315 84.315 0 01-5.08-2.249c.082-.208.16-.416.232-.621a83.582 83.582 0 005.094 2.256c.284.115.607.26.939.413M28.529 30.238c-.342.367-.677.74-1.004 1.12l-.614-.301c.38-.444.77-.88 1.168-1.306zm-1.298 2.65c.324-.01.644.013.958.065l-.107.16-.885-.184a1.94 1.94 0 01.034-.042m2.051-2.359a58.94 58.94 0 012.072-2.076 178.52 178.52 0 00-1.741 2.433zm-.446 1.474l-.616-.303c.268-.306.542-.61.82-.908l.363.393c-.19.272-.38.545-.567.818m-.856-.024l.652.32-.21.31a5.375 5.375 0 00-.89-.099c.146-.179.297-.355.448-.53m9.512-5.221c.727.801 1.366 1.698 1.719 2.767.117.355.237.707.356 1.06l-3.863-1.533-.109-.379c.503-.506 1.146-1.154 1.897-1.915m-.99-1.007l.014.012c.154.147.308.298.46.451a581.98 581.98 0 01-1.619 1.636l-.21-.729 1.355-1.37m-1.594.542l-.242-.839c.245-.163.464-.267.65-.294a.744.744 0 01.187-.004l.011.002c.115.014.244.064.379.136l-.985.999M24.7 37.578c.31-1.636 1.308-3.106 2.142-4.204l.106-.133.92.192a50.462 50.462 0 00-3.115 5.372.378.378 0 00-.081.11l-.03.061a4.574 4.574 0 01.058-1.398m15.85-8.496c.24.732.487 1.46.734 2.185l-.805-.319c-.186-.552-.374-1.102-.557-1.658-.558-1.69-1.719-2.955-2.89-4.07-.509-.484-.972-.748-1.415-.805l-.016-.002a1.489 1.489 0 00-.394.005h-.001c-.31.045-.642.192-1.006.441a.373.373 0 00-.289.144l-.14.186a5.8 5.8 0 00-.21.185c-1.613 1.477-3.26 2.986-4.79 4.601l-.451-.487c1.537-1.619 3.182-3.126 4.793-4.601.55-.503 1.368-1.146 2.318-1.146.082 0 .166.005.25.016.595.071 1.186.393 1.807.984 1.175 1.119 2.457 2.51 3.061 4.341m-1.096-5.391c-.33.339-.652.666-.962.982a25.19 25.19 0 00-.474-.464l.822-.841.614.323m18.353 23.537a.33.33 0 01-.184.433l-.028.01a.329.329 0 01-.4-.193c-3.23-7.908-.047-34.295 1.192-43.457.3-.39.574-.759.822-1.107-1.026 7.482-4.685 36.277-1.402 44.314M58.851.91a.327.327 0 01.284-.16.328.328 0 01.282.5c-2.492 4.138-11.736 13.967-18.39 20.826l-.614-.323C47.063 14.9 56.393 4.99 58.851.91m-5.58 27.615h.012a.36.36 0 01.235.093.33.33 0 01-.135.554.368.368 0 01-.104.014c-2.264 0-17.345-8.055-30.724-15.605l-.07-.04a.33.33 0 01.325-.575c2.827 1.594 27.66 15.56 30.461 15.559m-27.616 4.083l.065-.088c.307-.403.626-.796.95-1.183l.614.3c-.31.368-.615.741-.908 1.122zm19.854 13.466l.032.13-.004.002.012-.005c.006.017.007.035.015.051 1.51 2.81.615 4.576-.104 5.996l-.022.043c-1.213 2.397-3.814 3.853-5.272 4.121a1.809 1.809 0 01-1.474-.328 1.812 1.812 0 01-.71-1.202 1.818 1.818 0 011.477-2.05l.047-.008.032-.006c.482-.12 2.081-.919 2.703-2.29.148-.33.6-1.331-.325-3.054a.375.375 0 10-.66.355c.492.916.515 1.552.441 1.95-.328-.15-.65-.294-.938-.41a83.284 83.284 0 01-5.137-2.28c.19-.63.316-1.203.354-1.64.146-1.69-.33-3.095-1.378-4.063a.376.376 0 00-.509.55c1.1 1.017 1.227 2.437 1.14 3.449-.146 1.681-1.655 5.263-2.764 6.13l-.102.076a1.898 1.898 0 01-1.477.319 1.58 1.58 0 01-1.052-.716c-.579-.942.055-2.052.726-3.228.485-.851.987-1.73 1.017-2.592.014-.422-.124-1.519-1.703-2.59a.375.375 0 00-.42.62c.67.456 1.017.889 1.195 1.24-1.606-.777-3.224-1.64-4.38-2.724-.491-.461-.897-.964-1.184-1.519l-.005-.003c-.046-.09-.096-.177-.135-.27a48.923 48.923 0 012.135-4.025c1.77-3.055 5.656-8.287 6.978-10.047l.977 3.382a.376.376 0 00.221.244l10.046 3.988a.377.377 0 00.228.016l3.839-.944-.895 2.978c-.205.68-.408 1.36-.61 2.041-.402 1.345-.817 2.735-1.241 4.097-.01.031-.593 1.916-1.114 4.216m1.552 4.646c.17.531.194.797.188.913-.022.004-.047.004-.07.006a2.67 2.67 0 01-.59-.015c.152-.352.289-.733.389-1.144l.083.24m.601-2.285l.03.065c.301.677.664 1.49.845 2.247v.013c.083.35.119.657.11.925v.012c-.005.125-.021.24-.046.347l-.013.05a1.349 1.349 0 01-.11.288c-.184.346-.503.56-.953.636l-.059.01h-.002c-.034.005-.07.007-.104.01-.437.048-.918.008-1.427-.095.06-.103.12-.205.174-.313l.022-.043.128-.255c.253.043.495.069.72.069.135 0 .264-.008.385-.026l.056-.009c.24-.04.391-.134.478-.296a.853.853 0 00.075-.222l.007-.044c.013-.079.02-.165.017-.26v-.008c-.009-.3-.095-.685-.263-1.176v-.002a12.385 12.385 0 00-.18-.488c-.027-.07-.05-.134-.08-.207-.002-.007-.008-.01-.01-.016-.101-.249-.211-.51-.334-.785-.046-.831-.286-1.77-.84-2.836.054-.23.107-.454.16-.672.322.838.643 1.67.962 2.493.062.16.151.36.252.588M1.255 20.252a.334.334 0 01-.456-.107.332.332 0 01.106-.455c.269-.165 26.88-16.34 57.107-18.854-.141.22-.3.456-.477.705C27.473 4.2 1.515 20.091 1.255 20.252M12.021 40.94a1.81 1.81 0 011.325-.436 1.826 1.826 0 011.055 3.2c-6.424 5.533-2.157 11.896-.024 14.374 1.6 1.86 3.502 3.348 5.38 4.345a26.64 26.64 0 002.115 4.711c-3.785-.94-7.644-3.638-10.26-6.677-5.753-6.686-5.592-14.347.409-19.517m35.047 33.95a1.505 1.505 0 01-.506-.269.364.364 0 00-.097-.056c-.097-.038-7.994-3.165-12.13-4.959a8.467 8.467 0 001.646-2.561c1.517-3.682.235-7.98-3.05-10.222a.375.375 0 00-.423.62c2.994 2.043 4.163 5.96 2.78 9.316a7.662 7.662 0 01-4.292 4.233.374.374 0 00-.147.592l3.844 4.512c.26.305.386.692.354 1.092a1.488 1.488 0 01-.523 1.021 1.492 1.492 0 01-2.113-.168.372.372 0 00-.063-.058c-.05-.038-5.076-3.801-8.828-9.575-4.973-7.655-5.474-15.039-1.491-21.949l.004.004.055-.11.008-.017 1.699-3.813.03-.065c.258.33.544.64.852.934l.008-.01c1.585 1.523 3.753 2.606 5.62 3.496a25.01 25.01 0 01-.397.716c-.714 1.253-1.524 2.672-.713 3.993.338.55.887.926 1.543 1.059a2.652 2.652 0 002.186-.538c.668-.522 1.373-1.708 1.94-2.986a85.162 85.162 0 005.088 2.251c.13.053.274.115.423.181-.437.31-.843.494-.986.53l-.069.012a2.566 2.566 0 00-2.08 2.892c.096.68.451 1.282 1 1.695a2.552 2.552 0 001.907.492c.05-.007.102-.015.154-.025.961-.177 2.497-.847 3.847-2.034 2.474 1.738 3.769 4.838 3.14 7.885a7.657 7.657 0 01-3.43 4.959.376.376 0 00-.034.609l4.619 3.717a1.5 1.5 0 01-1.375 2.603m1.845-3.188l-4.223-3.398a8.392 8.392 0 003.332-5.15c.68-3.293-.689-6.64-3.324-8.563.288-.298.562-.62.812-.972.509.12 1.007.193 1.477.193a4.04 4.04 0 00.594-.042l.075-.012c.854-.146 1.279-.636 1.484-1.022.04-.075.075-.154.106-.235.009-.023.015-.047.023-.07.02-.058.039-.118.054-.179.007-.028.012-.058.018-.087.012-.057.023-.114.03-.173a3.067 3.067 0 00-.002-.82 3.893 3.893 0 00-.027-.2l-.015-.094a5.396 5.396 0 00-.052-.25.3.3 0 00-.008-.039v-.003c-.196-.83-.573-1.679-.89-2.39l-.03-.066c-.095-.213-.179-.4-.237-.551-.443-1.145-.892-2.31-1.342-3.484a54.79 54.79 0 01.571-2.013l.145-.474a5.002 5.002 0 011.343 2.194c.056.188.101.391.14.64a.375.375 0 00.578.254 5.03 5.03 0 015.169-.225c.394.213.75.477 1.067.777.194.963.432 1.811.72 2.516a1.077 1.077 0 001.409.592 1.079 1.079 0 00.592-1.409c-3.678-9.004 1.617-45.144 1.7-45.7.012-.076.014-.155.009-.233-.002-.029-.008-.056-.012-.085-.006-.036-.008-.072-.016-.108-.003-.01-.008-.018-.01-.028a1.661 1.661 0 00-.033-.091 1.052 1.052 0 00-.054-.124c-.013-.026-.029-.05-.044-.075a1.065 1.065 0 00-.088-.119c-.01-.012-.017-.026-.028-.038-.009-.009-.02-.015-.028-.023a1.063 1.063 0 00-.109-.094c-.024-.019-.048-.038-.073-.055C59.707.167 59.7.16 59.69.154c-.032-.02-.066-.032-.099-.047-.026-.013-.05-.027-.077-.037a1.065 1.065 0 00-.444-.068h-.014C28.198 2.218.786 18.883.512 19.051c-.507.314-.664.98-.351 1.488.312.504.979.663 1.488.35.04-.025.714-.438 1.935-1.124a5.04 5.04 0 015.104 3.586c.194.655.254 1.33.177 2.004a.376.376 0 00.477.403c2.648-.767 5.44.757 6.225 3.398.057.19.101.394.141.64a.374.374 0 00.577.255 5.042 5.042 0 011.336-.625 5.003 5.003 0 013.833.4 4.994 4.994 0 012.189 2.36l-.025-.005a.178.178 0 10-.073.349l.255.053c.027.078.059.154.082.234.056.187.101.39.142.64a.367.367 0 00.044.122c-.648 1.035-1.235 2.244-1.49 3.596-.345 1.822.001 3.316.756 4.568l-.22.465-1.696 3.805a21.79 21.79 0 00-1.173 2.332l-.042.085a.357.357 0 00-.03.085c-1.721 4.106-1.966 8.433-.744 12.829a18.338 18.338 0 01-4.484-3.757c-1.985-2.308-5.966-8.225-.054-13.317a2.578 2.578 0 00.27-3.63 2.559 2.559 0 00-1.76-.886 2.559 2.559 0 00-1.87.616c-6.346 5.467-6.537 13.543-.487 20.574 2.856 3.318 7.16 6.233 11.334 7.051.17.279.343.558.524.837 3.663 5.63 8.513 9.382 8.966 9.726a2.253 2.253 0 001.686.76c.522 0 1.04-.184 1.457-.54.457-.39.735-.934.783-1.533a2.233 2.233 0 00-.53-1.637l-3.516-4.126a8.455 8.455 0 002.007-1.312c3.906 1.71 11.592 4.757 12.384 5.07a2.25 2.25 0 003.115-.379 2.252 2.252 0 00-.341-3.162"/><path fill="#fff" d="M11.613 60.456c2.615 3.039 6.474 5.738 10.26 6.677a26.632 26.632 0 01-2.115-4.711c-1.879-.997-3.78-2.484-5.381-4.345-2.133-2.479-6.4-8.84.024-14.374a1.826 1.826 0 00-1.193-3.205 1.81 1.81 0 00-1.187.441c-6.001 5.17-6.162 12.83-.408 19.517"/><path fill="#fadceb" d="M61.39 61.19a1.585 1.585 0 00-2.137.67.25.25 0 11-.443-.231 1.586 1.586 0 00-.67-2.137c-.86-.449-1.7.1-2.16.706-.578.763.274 3.689.992 5.491 1.918-.43 4.83-1.39 5.068-2.309.126-.49.316-1.685-.65-2.19"/><path d="M62.04 63.38c-.238.919-3.15 1.88-5.067 2.31-.719-1.803-1.571-4.73-.993-5.492.46-.606 1.3-1.155 2.16-.706a1.586 1.586 0 01.67 2.137.25.25 0 10.443.231 1.585 1.585 0 012.136-.67c.967.505.777 1.7.65 2.19m-.418-2.633a2.083 2.083 0 00-2.132.121 2.086 2.086 0 00-1.118-1.819c-.935-.489-2.028-.156-2.79.847-.967 1.276.803 5.68 1.008 6.177a.25.25 0 00.283.15c.536-.114 5.248-1.155 5.652-2.718.325-1.262-.012-2.293-.903-2.758"/><path fill="#fadceb" d="M35.503 25.156a.744.744 0 00-.188.004c-.185.027-.404.13-.65.294l.243.839.985-.999a1.12 1.12 0 00-.38-.136l-.01-.002m11.402-3.189a1.235 1.235 0 110-2.47 1.235 1.235 0 010 2.47m8.211 16.906a1.231 1.231 0 11-.058-2.398c-.045-4.503.225-9.622.621-14.552a1.2 1.2 0 01-.308.044 1.235 1.235 0 11.504-2.36c.505-5.679 1.14-10.92 1.601-14.43-1.483 1.841-3.367 4.004-5.418 6.272.193.218.315.501.315.816 0 .682-.553 1.235-1.235 1.235-.274 0-.524-.092-.729-.243a494.07 494.07 0 01-8.692 9.18c6.02 3.15 10.585 5.337 11.546 5.337h.025c.283 0 .55.108.752.305a1.083 1.083 0 01-.738 1.855h-.017c-.24 0-.59-.072-1.036-.207a1.23 1.23 0 01-2.346-.528c0-.12.022-.233.054-.342-2.498-1.066-6.02-2.821-9.811-4.804l-1.136 1.162c.913.993 1.772 2.174 2.253 3.632.064.197.132.391.197.588a1.235 1.235 0 111.211.999c-.493 0-.916-.293-1.114-.711.214.638.428 1.275.646 1.909l3.265 1.296 4.36-1.072a.375.375 0 01.448.472l-1.083 3.606-.38 1.266 3.028-.148c.097-.013.181.07.186.169a.178.178 0 01-.17.186l-3.152.154c-.04.138-.082.275-.123.413l-.06.203 3.22 1.285a.178.178 0 01-.067.343.174.174 0 01-.066-.012l-3.19-1.273-.207.69 2.618 1.542a.178.178 0 11-.18.307l-2.543-1.499c-.165.55-.333 1.097-.502 1.648a5.377 5.377 0 011.582 2.485c.068.228.114.458.151.688a5.402 5.402 0 016.332.274c-.292-1.659-.468-3.62-.554-5.782m-15.549-8.288c-.119-.353-.24-.705-.357-1.06-.353-1.07-.991-1.966-1.718-2.767-.75.761-1.394 1.41-1.897 1.915l.11.379zm-10.527.205c-.278.3-.551.603-.82.91l.616.302c.187-.273.376-.546.567-.819z"/><path fill="#fadceb" d="M13.038 19.497a1.235 1.235 0 110 2.47 1.235 1.235 0 010-2.47m8.467 0a1.235 1.235 0 110 2.47 1.235 1.235 0 010-2.47m8.466 0a1.235 1.235 0 110 2.47 1.235 1.235 0 010-2.47M26.973 29.2a1.235 1.235 0 11-2.47 0 1.235 1.235 0 012.47 0m-1.235-18.17a1.235 1.235 0 110 2.47 1.235 1.235 0 010-2.47m8.467 0a1.235 1.235 0 110 2.47 1.235 1.235 0 010-2.47m8.466 0a1.235 1.235 0 110 2.47 1.235 1.235 0 010-2.47M24.846 32.44c.094-.128.187-.255.278-.374.276-.364.56-.72.852-1.07l-.479-.236a.178.178 0 01.158-.32l.56.276c.44-.518.89-1.023 1.353-1.517l-.721-.78a.178.178 0 11.262-.241l.702.76c1.542-1.623 3.186-3.129 4.797-4.604.706-.646 1.802-1.484 3.164-1.321.567.068 1.117.301 1.667.707l.704-.72c-5.902-3.13-12.123-6.602-15.956-8.766l-.07-.039a1.081 1.081 0 011.062-1.882 785.197 785.197 0 0014.187 7.818 1.23 1.23 0 012.169 1.157l.18.096c4.84-4.99 11.159-11.654 15.167-16.451a1.235 1.235 0 01.49-2.368c.416 0 .783.208 1.006.524.201-.256.39-.502.568-.74-2.993.285-5.944.698-8.83 1.214a1.235 1.235 0 01-2.424.46c-10.35 2.075-19.77 5.378-27.218 8.515-.124.55-.614.963-1.203.963-.23 0-.445-.067-.63-.178-5.556 2.422-9.852 4.668-12.395 6.075A5.405 5.405 0 019.238 25.4c2.852-.827 5.84.8 6.689 3.651.068.229.115.459.151.688.022-.014.045-.026.066-.04a1.235 1.235 0 011.127-1.735 1.23 1.23 0 011.188.918 5.405 5.405 0 015.63 3.4zm4.437-1.912l.33.357c.593-.845 1.189-1.674 1.74-2.433a58.94 58.94 0 00-2.07 2.076m-.651 1.771l-.653-.32c-.15.175-.3.351-.448.53.301.009.6.042.89.1l.211-.31m-4.403.375c.003.012.009.024.013.037.043.145.076.291.105.437.09-.136.181-.264.272-.393z"/><path fill="#fff" d="M55.371 2.564a1.235 1.235 0 00-.49 2.368 77.165 77.165 0 001.497-1.844 1.231 1.231 0 00-1.007-.524m-1.235 18.168c0 .682.553 1.235 1.235 1.235.107 0 .209-.018.308-.044.063-.778.128-1.551.196-2.316a1.235 1.235 0 00-1.739 1.125m-7.231-1.235a1.235 1.235 0 100 2.47 1.235 1.235 0 000-2.47m5.468-7.232c0-.315-.122-.598-.315-.816-.54.597-1.09 1.2-1.649 1.808a1.23 1.23 0 001.964-.992m-5.468-7.232a1.235 1.235 0 001.21-1.47c-.813.144-1.62.298-2.423.46a1.234 1.234 0 001.213 1.01m7.231 32.632c0 .595.421 1.09.98 1.208a82.974 82.974 0 01-.057-2.398c-.53.14-.923.617-.923 1.19m-2.998-7.232c.492 0 .913-.29 1.111-.706-.601-.183-1.378-.48-2.292-.87a1.205 1.205 0 00-.054.342c0 .681.553 1.234 1.235 1.234m-12.7-10.936c-.462 0-.86.257-1.072.633.736.395 1.46.781 2.169 1.157.085-.167.138-.354.138-.555 0-.682-.553-1.235-1.235-1.235m4.233-5.997a1.235 1.235 0 100-2.47 1.235 1.235 0 000 2.47m-8.466 0a1.235 1.235 0 100-2.47 1.235 1.235 0 000 2.47m8.466 16.933a1.235 1.235 0 10-1.21-.998l.096.288c.198.418.62.71 1.114.71m-16.933-2.469a1.235 1.235 0 100 2.47 1.235 1.235 0 000-2.47m4.233-5.997a1.235 1.235 0 100-2.47 1.235 1.235 0 000 2.47M25.738 13.5a1.235 1.235 0 100-2.47 1.235 1.235 0 000 2.47m-7.264-.963c-.625.263-1.236.525-1.833.785a1.224 1.224 0 001.833-.785m-1.203 15.427a1.235 1.235 0 00-1.127 1.734 5.395 5.395 0 011.37-.63c.315-.093.631-.152.945-.187a1.23 1.23 0 00-1.188-.917m4.234-5.997a1.235 1.235 0 100-2.47 1.235 1.235 0 000 2.47m-8.467 0a1.235 1.235 0 100-2.47 1.235 1.235 0 000 2.47M58.387 4.021c-1.239 9.162-4.422 35.55-1.191 43.457.064.158.235.24.4.192l.027-.01a.328.328 0 00.184-.431c-3.283-8.038.376-36.833 1.402-44.315-.248.348-.523.718-.822 1.107"/><path fill="#fff" d="M57.535 1.542c.176-.25.336-.485.477-.706C27.786 3.35 1.174 19.526.905 19.69a.332.332 0 00-.106.455c.095.155.3.202.456.107.26-.16 26.218-16.053 56.28-18.71m-17.122 20.21l.614.323C47.68 15.216 56.925 5.387 59.417 1.25a.33.33 0 10-.567-.34c-2.458 4.08-11.788 13.989-18.437 20.842m-3.436 4.462a23.05 23.05 0 00-.461-.451l-.014-.012-1.355 1.37.21.728c.455-.457 1.001-1.008 1.62-1.635m1.515-1.541l.962-.982-.614-.323-.823.841c.158.15.317.304.475.464"/><path fill="#fff" d="M22.81 12.965a.332.332 0 00-.45.126.33.33 0 00.126.45l.07.04c13.378 7.549 28.46 15.604 30.723 15.604.036 0 .07-.004.103-.014h.001a.33.33 0 00.135-.554.359.359 0 00-.235-.093h-.012c-2.801 0-27.634-13.965-30.46-15.56m.415 26.081c0 .012.002.023.003.034.097.94.428 1.768.92 2.507.01.013.018.026.027.04.057.083.115.166.176.247l.078.102a7.742 7.742 0 00.258.314l.098.111c.055.06.11.122.167.18l.047.049c1.515 1.557 3.73 2.665 5.624 3.568.088-.221.15-.437.181-.646-1.907-.91-3.905-1.92-5.266-3.29l-.009.011c-1.246-1.246-1.953-2.787-1.566-4.834.325-1.715 1.31-3.22 2.17-4.367l-.713-.149c-.857 1.173-1.78 2.672-2.106 4.394a6.114 6.114 0 00-.09 1.73m23.064 6.979c.553 1.067.793 2.005.84 2.836.122.276.232.536.332.785.003.006.009.01.011.016.03.073.053.137.08.207a12.986 12.986 0 01.18.488v.002c.167.491.254.877.263 1.176v.009c.002.094-.004.18-.017.259l-.007.044a.858.858 0 01-.075.222c-.087.162-.239.256-.478.297l-.056.008c-.121.018-.25.026-.384.026-.226 0-.468-.026-.72-.069l-.129.255-.022.043c-.054.108-.115.21-.174.313.509.103.99.144 1.427.096l.104-.01h.002l.059-.01c.45-.077.77-.291.954-.637.047-.088.081-.186.109-.289.004-.016.01-.033.013-.05a1.869 1.869 0 00.046-.358 3.6 3.6 0 00-.11-.925v-.013c-.18-.756-.544-1.57-.845-2.247l-.03-.065c-.101-.227-.19-.428-.252-.588a914.99 914.99 0 01-.962-2.493c-.053.218-.107.443-.16.672m-11.135 2.403a84.45 84.45 0 005.08 2.249c.232.094.496.21.77.336.155-.163.297-.342.415-.537a22.654 22.654 0 00-.939-.413 83.718 83.718 0 01-5.094-2.257c-.073.206-.15.414-.232.622m-7.869-16.791l-.613-.302c-.325.388-.644.781-.95 1.184l-.066.088.72.15c.294-.38.598-.753.91-1.12m.239-.279c.329-.38.663-.753 1.005-1.12l-.45-.487c-.399.426-.788.862-1.168 1.306zm8.158-7.601a2.077 2.077 0 00-.25-.016c-.95 0-1.768.643-2.317 1.146-1.612 1.475-3.258 2.982-4.794 4.6l.45.488c1.531-1.615 3.178-3.124 4.79-4.6a7.12 7.12 0 01.21-.186c.087-.114.137-.179.141-.186a.372.372 0 01.29-.144c.363-.25.696-.396 1.005-.441a1.474 1.474 0 01.41-.003c.444.057.907.32 1.416.804 1.171 1.116 2.332 2.381 2.89 4.071.183.556.37 1.106.558 1.658l.804.32a233.15 233.15 0 01-.735-2.185c-.604-1.833-1.887-3.223-3.061-4.342-.62-.59-1.212-.913-1.807-.984"/><path fill="#fff" d="M37.803 34.307c-.12-.435.146-.859.157-.876a.179.179 0 01.245-.055.179.179 0 01.056.245c-.002.003-.192.312-.114.593.041.148.15.265.333.357.611.308.828-.063.85-.106a.18.18 0 01.218-.086.176.176 0 01.116.2c-.011.062-.099.614.396.77.482.153.675-.336.696-.392a.178.178 0 01.335.12c-.09.254-.37.66-.847.66a.896.896 0 01-.123-.01c-.34.43-.845.95-1.366 1.036a.874.874 0 01-.736-.211 1.042 1.042 0 01-.38-.768c-.019-.392.159-.8.36-1.131a.823.823 0 01-.196-.346m7.188 1.581a.526.526 0 11.943.467.526.526 0 01-.943-.467m-12.297-4.83a.526.526 0 11.943.467.526.526 0 01-.943-.466m13.93 10.798c.423-1.362.838-2.752 1.24-4.097.202-.681.405-1.361.61-2.041l.895-2.978-3.839.944a.376.376 0 01-.228-.016l-10.046-3.988a.377.377 0 01-.222-.245l-.975-3.381c-1.323 1.76-5.21 6.992-6.98 10.047a48.982 48.982 0 00-2.134 4.025c.04.093.089.181.135.27l.005.003c.287.555.693 1.058 1.183 1.52 1.157 1.083 2.775 1.946 4.38 2.724-.177-.352-.523-.785-1.195-1.241a.375.375 0 01.421-.621c1.58 1.072 1.717 2.169 1.703 2.59-.03.862-.532 1.742-1.017 2.593-.671 1.176-1.305 2.286-.726 3.228.228.371.602.625 1.052.716a1.898 1.898 0 001.477-.32c.035-.024.067-.05.101-.075 1.11-.867 2.62-4.449 2.765-6.13.087-1.012-.04-2.432-1.14-3.448a.376.376 0 01.51-.551c1.047.968 1.523 2.373 1.377 4.064-.038.436-.165 1.01-.355 1.64a82.964 82.964 0 005.139 2.279c.287.116.61.26.938.41.073-.398.05-1.034-.443-1.95a.375.375 0 01.66-.355c.927 1.723.474 2.724.326 3.053-.622 1.372-2.222 2.17-2.703 2.292l-.032.005h.003-.003l-.047.009a1.818 1.818 0 00-1.477 2.05c.068.482.32.908.71 1.201a1.809 1.809 0 001.473.328c1.46-.268 4.06-1.724 5.273-4.12l.022-.044c.719-1.42 1.614-3.186.104-5.996-.008-.016-.009-.034-.015-.05l-.011.004.003-.003-.032-.129c.52-2.3 1.105-4.185 1.114-4.216"/><path fill="#fadceb" d="M38.25 36.28a.52.52 0 00.447.131c.36-.06.757-.435 1.065-.807a.914.914 0 01-.446-.651.826.826 0 01-.125.053c-.255.086-.55.046-.872-.117-.012-.006-.02-.014-.032-.02-.166.277-.307.6-.292.899a.69.69 0 00.256.513"/><path d="M38.319 34.889c.323.163.617.203.872.117a.842.842 0 00.125-.053.915.915 0 00.446.651c-.308.372-.704.747-1.066.807a.517.517 0 01-.445-.13.689.689 0 01-.256-.513c-.015-.299.126-.622.292-.899.011.006.02.014.032.02m-.3 1.662a.875.875 0 00.736.212c.521-.087 1.027-.606 1.366-1.036.042.006.084.01.123.01.477 0 .757-.406.847-.66a.178.178 0 10-.335-.12c-.02.056-.214.545-.696.393-.495-.157-.408-.709-.396-.77a.177.177 0 00-.116-.201.18.18 0 00-.217.086c-.023.043-.24.415-.851.106-.183-.092-.292-.209-.333-.357-.078-.281.112-.59.114-.593a.179.179 0 00-.301-.19c-.011.017-.277.44-.157.876.036.13.103.245.197.346-.202.332-.38.74-.361 1.131.014.306.143.564.38.767m-5.088-4.787a.527.527 0 10.468-.945.527.527 0 00-.468.945m12.298 4.829a.526.526 0 10.468-.941.526.526 0 00-.468.941"/></svg>